{"title":"I, Me aur Main 2013 Hindi Movies Best Scam Rip New Source Sample","uid":8213650,"size":735180989,"categoryP":"video","categoryS":"movies","magnet":"?xt=urn:btih:35d74e0f216a8a90da2474f705360c0c0d682ef3&amp;dn=I%2C+Me+aur+Main+2013+Hindi+Movies+Best+Scam+Rip+New+Source+Sample&amp;tr=udp%3A%2F%2Ftracker.openbittorrent.com%3A80&amp;tr=udp%3A%2F%2Fopen.demonii.com%3A1337&amp;tr=udp%3A%2F%2Ftracker.coppersurfer.tk%3A6969&amp;tr=udp%3A%2F%2Fexodus.desync.com%3A6969","seeders":1,"leechers":1,"uploader":"basicssom","files":2,"time":1362294396,"description":"I, Me aur Main 2013 Hindi Movies Best Scam Rip New Source Sample Included ~ rDX\n\nScreen Shots :\n &lt;a href=&quot;\nhttp://myimghosting.serveftp.com/13/IMeaurMain.html&quot; rel=&quot;nofollow&quot; target=&quot;_NEW&quot;&gt;\nhttp://myimghosting.serveftp.com/13/IMeaurMain.html&lt;/a&gt;\n &lt;a href=&quot;\nhttp://myimghost.cwahi.net/IMeaurMain.html&quot; rel=&quot;nofollow&quot; target=&quot;_NEW&quot;&gt;\nhttp://myimghost.cwahi.net/IMeaurMain.html&lt;/a&gt;\n\n\nFormat                                   : MPEG-4\nFormat profile                           : Base Media\nCodec ID                                 : isom\nFile size                                : 690 MiB\nDuration                                 : 1h 33mn\nOverall bit rate mode                    : Variable\nOverall bit rate                         : 1 029 Kbps\nWriting application                      : Lavf52.34.0\n\nVideo\nID                                       : 1\nFormat                                   : MPEG-4 Visual\nFormat profile                           : Simple@L1\nFormat settings, BVOP                    : No\nFormat settings, QPel                    : No\nFormat settings, GMC                     : No warppoints\nFormat settings, Matrix                  : Default (H.263)\nCodec ID                                 : 20\nDuration                                 : 1h 33mn\nBit rate                                 : 461 Kbps\nWidth                                    : 720 pixels\nHeight                                   : 576 pixels\nDisplay aspect ratio                     : 4:3\nFrame rate mode                          : Constant\nFrame rate                               : 25.000 fps\nStandard                                 : PAL\nColor space                              : YUV\nChroma subsampling                       : 4:2:0\nBit depth                                : 8 bits\nScan type                                : Progressive\nCompression mode                         : Lossy\nBits/(Pixel*Frame)                       : 0.044\nStream size                              : 309 MiB (45%)\nWriting library                          : Lavc52.30.1\n\nAudio\nID                                       : 2\nFormat                                   : AAC\nFormat/Info                              : Advanced Audio Codec\nFormat profile                           : LC\nCodec ID                                 : 40\nDuration                                 : 1h 33mn\nBit rate mode                            : Variable\nBit rate                                 : 152 Kbps\nChannel(s)                               : 2 channels\nChannel positions                        : Front: L R\nSampling rate                            : 44.1 KHz\nCompression mode                         : Lossy\nStream size                              : 102 MiB (15%)","torrent":{"xt":"urn:btih:35d74e0f216a8a90da2474f705360c0c0d682ef3","amp;dn":"I%2C+Me+aur+Main+2013+Hindi+Movies+Best+Scam+Rip+New+Source+Sample","amp;tr":["udp%3A%2F%2Ftracker.openbittorrent.com%3A80","udp%3A%2F%2Fopen.demonii.com%3A1337","udp%3A%2F%2Ftracker.coppersurfer.tk%3A6969","udp%3A%2F%2Fexodus.desync.com%3A6969"],"infoHash":"35d74e0f216a8a90da2474f705360c0c0d682ef3","infoHashBuffer":{"type":"Buffer","data":[53,215,78,15,33,106,138,144,218,36,116,247,5,54,12,12,13,104,46,243]},"announce":[],"urlList":[]}}